REM DIRINDEX 1\2,1\3,1\4
REM DIRNAME folder01,folder02,folder03,folder04
TITLE ""
FILE "Track53.mp3" MP3
  TRACK 01 AUDIO
    TITLE "2:cjc112_235"
    INDEX 01 00:00:00
  TRACK 02 AUDIO
    TITLE "0:"
    INDEX 01 00:01:32
  TRACK 03 AUDIO
    TITLE "3:cjc112_236"
    INDEX 01 00:02:00
  TRACK 04 AUDIO
    TITLE "0:"
    INDEX 01 00:05:05
  TRACK 05 AUDIO
    TITLE "4:cjc112_237"
    INDEX 01 00:08:48
  TRACK 06 AUDIO
    TITLE "0:"
    INDEX 01 00:11:60
